<?xml version="1.0" encoding="UTF-8"?>
<!DOCTYPE svg PUBLIC "-//W3C//DTD SVG 1.1//EN" "http://www.w3.org/Graphics/SVG/1.1/DTD/svg11.dtd">
<!-- Creator: CorelDRAW X7 -->
<svg xmlns="http://www.w3.org/2000/svg" xml:space="preserve" width="210mm" height="297mm" version="1.1" style="shape-rendering:geometricPrecision; text-rendering:geometricPrecision; image-rendering:optimizeQuality; fill-rule:evenodd; clip-rule:evenodd"
viewBox="0 0 21000 29700"
 xmlns:xlink="http://www.w3.org/1999/xlink">
 <defs>
  <style type="text/css">
   <![CDATA[
    .fil0 {fill:none}
   ]]>
  </style>
      <clipPath id="id0">
       <path d="M7659 10236c-127,495 167,1495 1114,2312 354,306 813,517 1274,802 501,310 1003,694 1349,1042 995,1000 1212,2228 1212,2228 269,-161 667,-614 874,-1255 189,-589 209,-1341 -7,-2065 1364,2058 94,6014 -3747,7057 209,-2182 -1407,-2666 -2643,-4523 -1075,-1615 -1563,-4043 574,-5598zm-532 -2838c344,957 1100,1444 2702,1105 993,-211 1614,-298 2485,45 59,23 262,-89 430,-267 131,-141 230,-336 299,-446 211,463 245,1004 -20,1260 447,442 604,942 612,1367 11,543 -198,1059 -537,1499 0,0 57,55 75,143 22,108 3,262 -45,402 -62,179 -387,507 -387,507 -66,-220 -157,-413 -292,-532 -128,-114 -272,-184 -420,-231 -80,-25 328,-260 329,-304 6,-177 -275,-637 -660,-996 -302,-282 -683,-464 -972,-488 -9,-1 -212,174 -103,423 159,364 685,388 678,375 0,0 -702,584 -1191,-104 -290,-407 16,-826 16,-826 0,0 -1072,-96 -1617,-226 -397,-95 -746,-294 -1023,-543 -447,-403 -672,-1021 -359,-2163z"/>
      </clipPath>
 </defs>
 <g id="Camada_x0020_1">
  <metadata id="CorelCorpID_0Corel-Layer"/>
  <g id="logo_x0020_2018_x0020_curvas.zip">
   <g>
    <path class="fil0" d="M4047 7413c1581,-1478 3705,-2382 6040,-2382 2442,0 4654,990 6255,2591 1601,1601 2591,3812 2591,6255 0,2443 -990,4655 -2591,6255 -1601,1601 -3813,2592 -6255,2592 -2335,0 -4459,-905 -6040,-2383m0 -1259c129,149 263,294 402,433 1443,1443 3436,2335 5638,2335 2201,0 4195,-892 5637,-2335 1443,-1443 2336,-3436 2336,-5638 0,-2201 -893,-4195 -2336,-5638 -1442,-1442 -3436,-2335 -5637,-2335 -2202,0 -4195,893 -5638,2335 -139,140 -273,284 -402,433"/>
    <g>
     <g style="clip-path:url(#id0)">
      <image x="6167" y="7398" width="7838" height="12959" xlink:href="bagulho sem circulo em volta_Images\bagulho sem circulo em volta_ImgID1.png"/>
     </g>
    </g>
   </g>
  </g>
 </g>
</svg>
